<svg width="100" height="100" xmlns="http://www.w3.org/2000/svg">
  <style>
      :root {
        --g-color: rgb(105,51,176);
        --l-color: rgb(91,208,187);
        --o-color: rgb(252,141,69);
        --d-color: rgb(69,117,243);
        --stroke-color: rgb(255,255,255);
      }
  </style>
  <defs>
	<path id="g" d="M50,7 L20,25 L30,31 L20,37 L10,31 L00,37 L20,49 L70,19 L50,7" stroke="var(--stroke-color)" fill="var(--g-color)" stroke-linecap="square" stroke-linejoin="miter"/>
    <path id="l" d="M50,7 L00,37 L20,49 L30,43 L20, 37 L60,13 L50,7" stroke="var(--stroke-color)" fill="var(--l-color)" stroke-linecap="square" stroke-linejoin="miter"/>
    <path id="o" d="M50,7 L20,25 L40,37 L70,19 L50,7" stroke="var(--stroke-color)" fill="var(--o-color)" stroke-linecap="square" stroke-linejoin="miter"/>
    <path id="d" d="M50,7 L30,19 L20,13 L-10,31 L10,43 L60,13 L50,7" stroke="var(--stroke-color)" fill="var(--d-color)" stroke-linecap="square" stroke-linejoin="miter"/>
  </defs>
  <g transform="translate(-6, 22) rotate(-30)">
	<use href="#g"/>
    <use href="#l" x="" y="24"/>
    <use href="#o" x="" y="36"/>
    <use href="#d" x="10" y="54"/>
  </g>
</svg>